<?xml version="1.0" encoding="UTF-8"?>
<svg width="150px" height="25px" viewBox="0 0 150 25" version="1.1" xmlns="http://www.w3.org/2000/svg" xmlns:xlink="http://www.w3.org/1999/xlink">
    <title>Artboard</title>
    <g id="Artboard" stroke="none" stroke-width="1" fill="none" fill-rule="evenodd">
        <g id="Group-2" fill="#1E1E1E" fill-rule="nonzero">
            <path d="M33.2452643,18.75 L33.2452643,3.98152669 L38.5327483,3.98152669 L38.5327483,2.11385091 L25.9110124,2.11385091 L25.9110124,3.98152669 L31.1984964,3.98152669 L31.1984964,18.75 L33.2452643,18.75 Z M47.2796714,19.0266927 C49.6069224,19.0266927 51.4490136,18.2561804 52.805945,16.7151557 C54.1628764,15.174131 54.841342,13.0816424 54.841342,10.4376899 C54.841342,7.79373734 54.1628764,5.69932726 52.805945,4.15445964 C51.4490136,2.60959201 49.6069224,1.8371582 47.2796714,1.8371582 C44.9524204,1.8371582 43.1103293,2.60959201 41.7533979,4.15445964 C40.3964665,5.69932726 39.7180009,7.79373734 39.7180009,10.4376899 C39.7180009,13.0816424 40.3964665,15.174131 41.7533979,16.7151557 C43.1103293,18.2561804 44.9524204,19.0266927 47.2796714,19.0266927 Z M47.2796714,17.1129015 C45.604354,17.1129015 44.2758499,16.5114791 43.2941594,15.3086344 C42.3124688,14.1057897 41.8216235,12.4821416 41.8216235,10.4376899 C41.8216235,8.3855523 42.3124688,6.75806116 43.2941594,5.55521647 C44.2758499,4.35237178 45.604354,3.75094944 47.2796714,3.75094944 C48.9549889,3.75094944 50.2815978,4.35429326 51.2594981,5.5609809 C52.244979,6.75998264 52.7377194,8.3855523 52.7377194,10.4376899 C52.7377194,12.4821416 52.2468741,14.1057897 51.2651835,15.3086344 C50.283493,16.5114791 48.9549889,17.1129015 47.2796714,17.1129015 Z M69.9586633,18.75 C72.3996236,18.75 74.3004646,18.0179172 75.6611863,16.5537516 C77.021908,15.089586 77.7022688,13.0470558 77.7022688,10.426161 C77.7022688,7.81295211 77.0200128,5.77426487 75.6555009,4.31009928 C74.2909889,2.8459337 72.392043,2.11385091 69.9586633,2.11385091 L69.9586633,2.11385091 L64.3300514,2.11385091 L64.3300514,18.75 L69.9586633,18.75 Z M69.8222121,16.8823242 L66.3768193,16.8823242 L66.3768193,3.98152669 L69.8222121,3.98152669 C71.6870452,3.98152669 73.1178876,4.53875506 74.1147394,5.65321181 C75.1115912,6.76766855 75.6100171,8.36633753 75.6100171,10.4492188 C75.6100171,12.5167282 75.1096961,14.1057897 74.1090539,15.2164035 C73.1084118,16.3270173 71.6794645,16.8823242 69.8222121,16.8823242 L69.8222121,16.8823242 Z M87.8478168,19.0266927 C90.1750678,19.0266927 92.017159,18.2561804 93.3740903,16.7151557 C94.7310217,15.174131 95.4094874,13.0816424 95.4094874,10.4376899 C95.4094874,7.79373734 94.7310217,5.69932726 93.3740903,4.15445964 C92.017159,2.60959201 90.1750678,1.8371582 87.8478168,1.8371582 C85.5205658,1.8371582 83.6784746,2.60959201 82.3215432,4.15445964 C80.9646119,5.69932726 80.2861462,7.79373734 80.2861462,10.4376899 C80.2861462,13.0816424 80.9646119,15.174131 82.3215432,16.7151557 C83.6784746,18.2561804 85.5205658,19.0266927 87.8478168,19.0266927 Z M87.8478168,17.1129015 C86.1724993,17.1129015 84.8439953,16.5114791 83.8623047,15.3086344 C82.8806141,14.1057897 82.3897688,12.4821416 82.3897688,10.4376899 C82.3897688,8.3855523 82.8806141,6.75806116 83.8623047,5.55521647 C84.8439953,4.35237178 86.1724993,3.75094944 87.8478168,3.75094944 C89.5231343,3.75094944 90.8497432,4.35429326 91.8276434,5.5609809 C92.8131243,6.75998264 93.3058647,8.3855523 93.3058647,10.4376899 C93.3058647,12.4821416 92.8150194,14.1057897 91.8333289,15.3086344 C90.8516383,16.5114791 89.5231343,17.1129015 87.8478168,17.1129015 Z M114.859134,18.75 L114.859134,16.8823242 L106.944965,16.8823242 L106.944965,2.11385091 L104.898197,2.11385091 L104.898197,18.75 L114.859134,18.75 Z M119.842278,18.75 L119.842278,2.11385091 L117.79551,2.11385091 L117.79551,18.75 L119.842278,18.75 Z M129.009926,19.0266927 C130.897501,19.0266927 132.392779,18.5828315 133.495759,17.695109 C134.59874,16.8073866 135.15023,15.6026204 135.15023,14.0808105 C135.15023,12.8894947 134.77878,11.9364421 134.035879,11.2216526 C133.292978,10.5068631 132.072498,9.93426288 130.374438,9.503852 L130.374438,9.503852 L128.657427,9.04269748 C127.543076,8.75063296 126.741425,8.40284559 126.252475,7.99933539 C125.763525,7.5958252 125.51905,7.07894784 125.51905,6.44870334 C125.51905,5.63399703 125.854492,4.9730089 126.525377,4.46573893 C127.196262,3.95846897 128.062348,3.70483398 129.123635,3.70483398 C130.192503,3.70483398 131.060484,3.96231192 131.727579,4.4772678 C132.394674,4.99222367 132.773705,5.6954843 132.864673,6.5870497 L132.864673,6.5870497 L134.91144,6.5870497 C134.865957,5.19590025 134.308781,4.0564643 133.239913,3.16874186 C132.171046,2.28101942 130.821695,1.8371582 129.191861,1.8371582 C127.486221,1.8371582 126.093282,2.27525499 125.013043,3.15144857 C123.932804,4.02764214 123.392685,5.1574707 123.392685,6.54093424 C123.392685,7.6707628 123.741394,8.5873074 124.438811,9.29056803 C125.136228,9.99382867 126.242999,10.5414497 127.759124,10.933431 L127.759124,10.933431 L129.862746,11.4868164 C130.969517,11.7788809 131.774958,12.1516475 132.279069,12.6051161 C132.783181,13.0585847 133.035237,13.6350279 133.035237,14.3344455 C133.035237,15.1491518 132.673262,15.8235903 131.949312,16.357761 C131.225363,16.8919316 130.310003,17.1590169 129.203232,17.1590169 C128.028236,17.1590169 127.056021,16.8861672 126.286588,16.3404677 C125.517155,15.7947682 125.083164,15.0722928 124.984616,14.1730414 L124.984616,14.1730414 L122.926477,14.1730414 C123.025025,15.64105 123.627684,16.816994 124.734455,17.7008735 C125.841226,18.584753 127.266383,19.0266927 129.009926,19.0266927 Z M144.533926,18.75 L144.533926,3.98152669 L149.821409,3.98152669 L149.821409,2.11385091 L137.199674,2.11385091 L137.199674,3.98152669 L142.487158,3.98152669 L142.487158,18.75 L144.533926,18.75 Z" id="TODOLIST"></path>
            <path d="M15.7534247,3.70074342e-14 C16.8477266,3.70074342e-14 17.7422335,0.867305531 17.804731,1.96092167 L17.8082192,2.08333333 L17.8082192,20.1388889 C17.8082192,21.2483895 16.9527945,22.1553201 15.8741594,22.2186856 L15.7534247,22.2222222 L10.958,22.222 L10.9589041,23.9153167 C10.9589041,24.0941804 10.9065004,24.2690131 10.808342,24.4176322 C10.5518224,24.8060219 10.0497062,24.927809 9.65126177,24.7129272 L9.57305865,24.6654412 L7.69178082,23.3881944 L5.45014414,24.7209392 C5.34092229,24.7858253 5.21963523,24.8261651 5.09447162,24.8397056 L5,24.8448009 C4.53897463,24.8448009 4.15978407,24.4895581 4.11418613,24.0343269 L4.10958904,23.9420232 L4.109,22.222 L2.05479452,22.2222222 C0.960492546,22.2222222 0.065985699,21.3549167 0.00348814617,20.2613005 L0,20.1388889 L0,2.08333333 C0,0.97383272 0.855424633,0.0669021671 1.93405973,0.00353659265 L2.05479452,3.70074342e-14 L15.7534247,3.70074342e-14 Z M9.589,20.138 L5.479,20.138 L5.47945205,23.0930556 L7.25947059,22.0363155 C7.52458438,21.8788178 7.84862925,21.8721276 8.11759161,22.0127731 L8.20504924,22.065107 L9.5890411,23.0048611 L9.589,20.138 Z M15.8741594,18.052019 L15.7534247,18.0555556 L2.05479452,18.0555556 C1.7035371,18.0555556 1.41403619,18.323639 1.37447105,18.6690131 L1.36986301,18.75 L1.36986301,20.1388889 C1.36986301,20.4950249 1.6342741,20.7885466 1.97491704,20.8286613 L2.05479452,20.8333333 L4.109,20.833 L4.109,20.138 L3.42465753,20.1388889 C3.04638031,20.1388889 2.73972603,19.8279755 2.73972603,19.4444444 C2.73972603,19.0883084 3.00413712,18.7947867 3.34478005,18.754672 L3.42465753,18.75 L15.7534247,18.75 C16.1046821,18.75 16.394183,18.4819165 16.4337481,18.1365424 L16.4383562,18.0555556 L16.439177,17.9367156 C16.2608598,18.0007039 16.0712353,18.0404415 15.8741594,18.052019 Z M15.8741594,20.1353523 L15.7534247,20.1388889 L10.958,20.138 L10.958,20.833 L15.7534247,20.8333333 C16.1046821,20.8333333 16.394183,20.5652499 16.4337481,20.2198758 L16.4383562,20.1388889 L16.439177,20.0200489 C16.2608598,20.0840372 16.0712353,20.1237749 15.8741594,20.1353523 Z M15.7534247,1.38888889 L4.109,1.388 L4.10958904,15.2777778 L2.73972603,15.2777778 L2.739,1.388 L2.05479452,1.38888889 C1.7035371,1.38888889 1.41403619,1.65697235 1.37447105,2.00234644 L1.36986301,2.08333333 L1.36904213,16.7855067 C1.54735934,16.7215184 1.73698388,16.6817807 1.93405973,16.6702033 L2.05479452,16.6666667 L15.7534247,16.6666667 C16.1046821,16.6666667 16.394183,16.3985832 16.4337481,16.0532091 L16.4383562,15.9722222 L16.4383562,2.08333333 C16.4383562,1.72719733 16.1739451,1.43367558 15.8333021,1.39356092 L15.7534247,1.38888889 Z" id="Combined-Shape"></path>
        </g>
    </g>
</svg>