<?xml version="1.0" encoding="UTF-8"?>
<svg width="18px" height="18px" viewBox="0 0 18 18" version="1.1" xmlns="http://www.w3.org/2000/svg" xmlns:xlink="http://www.w3.org/1999/xlink">
    <title>Artboard</title>
    <g id="Artboard" stroke="none" stroke-width="1" fill="none" fill-rule="evenodd">
        <g id="Group-4" transform="translate(3.500000, 3.500000)" stroke="#1E1E1E">
            <path d="M6.5,0 L1,0 C0.44771525,1.01453063e-16 -6.76353751e-17,0.44771525 0,1 L0,9 C6.76353751e-17,9.55228475 0.44771525,10 1,10 L9,10 C9.55228475,10 10,9.55228475 10,9 L10,4.5 L10,4.5" id="Path-21-Copy-7"></path>
            <path d="M2,10 L2,11 C2,11.5522847 2.44771525,12 3,12 L11,12 C11.5522847,12 12,11.5522847 12,11 L12,5.5 L12,5.5" id="Path-21-Copy-6"></path>
            <polyline id="Path-22-Copy-4" stroke-width="1.3" points="3 4.5 5 6.5 11 0.5"></polyline>
        </g>
    </g>
</svg>