<?xml version="1.0" encoding="UTF-8"?>
<svg width="18px" height="18px" viewBox="0 0 18 18" version="1.1" xmlns="http://www.w3.org/2000/svg" xmlns:xlink="http://www.w3.org/1999/xlink">
    <title>Artboard</title>
    <g id="Artboard" stroke="none" stroke-width="1" fill="none" fill-rule="evenodd">
        <path d="M10,0 C11.1045695,0 12,0.8954305 12,2 L14,2 L14,4 C14,4.55228475 13.5522847,5 13,5 L7,5 C6.44771525,5 6,4.55228475 6,4 L6,2 L8,2 C8,0.8954305 8.8954305,0 10,0 Z M10,1 C9.48716416,1 9.06449284,1.38604019 9.00672773,1.88337887 L9,2 L9,3 L7,3 L7,4 L13,4 L13,3 L11,3 L11,2 C11,1.44771525 10.5522847,1 10,1 Z" id="Path" fill="#1E1E1E" fill-rule="nonzero"></path>
        <rect id="Rectangle-Copy-47" fill="#1E1E1E" x="6" y="7" width="1" height="1"></rect>
        <rect id="Rectangle-Copy-48" fill="#1E1E1E" x="6" y="9" width="1" height="1"></rect>
        <rect id="Rectangle-Copy-49" fill="#1E1E1E" x="8" y="7" width="6" height="1"></rect>
        <rect id="Rectangle-Copy-50" fill="#1E1E1E" x="8" y="9" width="6" height="1"></rect>
        <rect id="Rectangle-Copy-51" fill="#1E1E1E" x="6" y="11" width="1" height="1"></rect>
        <rect id="Rectangle-Copy-52" fill="#1E1E1E" x="8" y="11" width="6" height="1"></rect>
        <path d="M14.5,3 C15.3284271,3 16,3.67157288 16,4.5 L16,14.5 C16,15.3284271 15.3284271,16 14.5,16 L5.5,16 C4.67157288,16 4,15.3284271 4,14.5 L4,4.5 C4,3.67157288 4.67157288,3 5.5,3 L6,3 L6,4 L5.5,4 C5.25454011,4 5.05039163,4.17687516 5.00805567,4.41012437 L5,4.5 L5,14.5 C5,14.7454599 5.17687516,14.9496084 5.41012437,14.9919443 L5.5,15 L14.5,15 C14.7454599,15 14.9496084,14.8231248 14.9919443,14.5898756 L15,14.5 L15,4.5 C15,4.25454011 14.8231248,4.05039163 14.5898756,4.00805567 L14.5,4 L14,4 L14,3 L14.5,3 Z" id="Combined-Shape" fill="#1E1E1E" fill-rule="nonzero"></path>
    </g>
</svg>