<?xml version="1.0" encoding="UTF-8"?>
<svg width="18px" height="18px" viewBox="0 0 18 18" version="1.1" xmlns="http://www.w3.org/2000/svg" xmlns:xlink="http://www.w3.org/1999/xlink">
    <title>Artboard</title>
    <g id="Artboard" stroke="none" stroke-width="1" fill="none" fill-rule="evenodd">
        <path d="M15,2 C15.5522847,2 16,2.44771525 16,3 L16,11 C16,11.5522847 15.5522847,12 15,12 L12,12 L12,11 L15,11 L15,3 L7,3 L7,6 L6,6 L6,3 C6,2.44771525 6.44771525,2 7,2 L15,2 Z" id="Path" fill="#1E1E1E" fill-rule="nonzero"></path>
        <path d="M12,5 C12.5522847,5 13,5.44771525 13,6 L13,14 C13,14.5522847 12.5522847,15 12,15 L7,15 L3,11 L3,6 C3,5.44771525 3.44771525,5 4,5 L12,5 Z M12,6 L4,6 L4,10.585 L7.415,14 L12,14 L12,6 Z" id="Rectangle-Copy-54" fill="#1E1E1E" fill-rule="nonzero"></path>
        <path d="M6.5,10 C7.27969612,10 7.92044868,10.5948881 7.99313342,11.35554 L8,11.5 L8,14.5 L7,14.5 L7,11.5 C7,11.2545401 6.82312484,11.0503916 6.58987563,11.0080557 L6.5,11 L3.5,11 L3.5,10 L6.5,10 Z" id="Path-37-Copy" fill="#1E1E1E" fill-rule="nonzero"></path>
    </g>
</svg>