<?xml version="1.0" encoding="UTF-8"?>
<svg width="39px" height="35px" viewBox="0 0 39 35" version="1.1" xmlns="http://www.w3.org/2000/svg" xmlns:xlink="http://www.w3.org/1999/xlink">
    <title>Artboard Copy</title>
    <g id="Artboard-Copy" stroke="none" stroke-width="1" fill="none" fill-rule="evenodd">
        <path d="M33,8 L33,12 L29,12 L29,27.5 C29,28.8254834 27.9684641,29.9100387 26.6643757,29.9946823 L26.5,30 L12.5,30 C11.1745166,30 10.0899613,28.9684641 10.0053177,27.6643757 L10,27.5 L10,12 L6,12 L6,8 L15,8 L15,6 C15,5.48716416 15.3860402,5.06449284 15.8833789,5.00672773 L16,5 L23,5 C23.5128358,5 23.9355072,5.38604019 23.9932723,5.88337887 L24,6 L24,8 L33,8 Z M28,12 L11,12 L11,27.5 C11,28.2796961 11.5948881,28.9204487 12.35554,28.9931334 L12.5,29 L26.5,29 C27.2796961,29 27.9204487,28.4051119 27.9931334,27.64446 L28,27.5 L28,12 Z M32,11 L32,9 L7,9 L7,11 L32,11 Z M23,6 L16,6 L16,8 L23,8 L23,6 Z" id="Shape" fill="#007AFF"></path>
    </g>
</svg>