<?xml version="1.0" encoding="UTF-8"?>
<svg width="39px" height="35px" viewBox="0 0 39 35" version="1.1" xmlns="http://www.w3.org/2000/svg" xmlns:xlink="http://www.w3.org/1999/xlink">
    <title>Artboard</title>
    <g id="Artboard" stroke="none" stroke-width="1" fill="none" fill-rule="evenodd">
        <path d="M19.5,4 C26.9558441,4 33,10.0441559 33,17.5 C33,24.9558441 26.9558441,31 19.5,31 C12.0441559,31 6,24.9558441 6,17.5 C6,10.0441559 12.0441559,4 19.5,4 Z M19.5,5 C12.5964406,5 7,10.5964406 7,17.5 C7,24.4035594 12.5964406,30 19.5,30 C26.4035594,30 32,24.4035594 32,17.5 C32,10.5964406 26.4035594,5 19.5,5 Z M19.5,22 C20.3284271,22 21,22.6715729 21,23.5 C21,24.3284271 20.3284271,25 19.5,25 C18.6715729,25 18,24.3284271 18,23.5 C18,22.6715729 18.6715729,22 19.5,22 Z M19.5,23 C19.2238576,23 19,23.2238576 19,23.5 C19,23.7761424 19.2238576,24 19.5,24 C19.7761424,24 20,23.7761424 20,23.5 C20,23.2238576 19.7761424,23 19.5,23 Z M21,10 L21,20 L18,20 L18,10 L21,10 Z M20,11 L19,11 L19,19 L20,19 L20,11 Z" id="Combined-Shape" fill="#969696" fill-rule="nonzero"></path>
    </g>
</svg>