<?xml version="1.0" encoding="UTF-8"?>
<svg width="219px" height="36px" viewBox="0 0 219 36" version="1.1" xmlns="http://www.w3.org/2000/svg" xmlns:xlink="http://www.w3.org/1999/xlink">
    <title>Artboard</title>
    <g id="Artboard" stroke="none" stroke-width="1" fill="none" fill-rule="evenodd">
        <path d="M48.5380859,27 L48.5380859,5.73339844 L56.2578125,5.73339844 L56.2578125,3.04394531 L37.8300781,3.04394531 L37.8300781,5.73339844 L45.5498047,5.73339844 L45.5498047,27 L48.5380859,27 Z M69.0283203,27.3984375 C72.4261068,27.3984375 75.1155599,26.2888997 77.0966797,24.0698242 C79.0777995,21.8507487 80.0683594,18.8375651 80.0683594,15.0302734 C80.0683594,11.2229818 79.0777995,8.20703125 77.0966797,5.98242188 C75.1155599,3.7578125 72.4261068,2.64550781 69.0283203,2.64550781 C65.6305339,2.64550781 62.9410807,3.7578125 60.9599609,5.98242188 C58.9788411,8.20703125 57.9882812,11.2229818 57.9882812,15.0302734 C57.9882812,18.8375651 58.9788411,21.8507487 60.9599609,24.0698242 C62.9410807,26.2888997 65.6305339,27.3984375 69.0283203,27.3984375 Z M69.0283203,24.6425781 C66.5823568,24.6425781 64.6427409,23.7765299 63.2094727,22.0444336 C61.7762044,20.3123372 61.0595703,17.9742839 61.0595703,15.0302734 C61.0595703,12.0751953 61.7762044,9.73160807 63.2094727,7.99951172 C64.6427409,6.26741536 66.5823568,5.40136719 69.0283203,5.40136719 C71.4742839,5.40136719 73.4111328,6.27018229 74.8388672,8.0078125 C76.2776693,9.734375 76.9970703,12.0751953 76.9970703,15.0302734 C76.9970703,17.9742839 76.2804362,20.3123372 74.847168,22.0444336 C73.4138997,23.7765299 71.4742839,24.6425781 69.0283203,24.6425781 Z M102.139648,27 C105.703451,27 108.478678,25.9458008 110.465332,23.8374023 C112.451986,21.7290039 113.445312,18.7877604 113.445312,15.0136719 C113.445312,11.250651 112.449219,8.31494141 110.457031,6.20654297 C108.464844,4.09814453 105.692383,3.04394531 102.139648,3.04394531 L102.139648,3.04394531 L93.921875,3.04394531 L93.921875,27 L102.139648,27 Z M101.94043,24.3105469 L96.9101562,24.3105469 L96.9101562,5.73339844 L101.94043,5.73339844 C104.663086,5.73339844 106.752116,6.53580729 108.20752,8.140625 C109.662923,9.74544271 110.390625,12.047526 110.390625,15.046875 C110.390625,18.0240885 109.660156,20.3123372 108.199219,21.9116211 C106.738281,23.5109049 104.652018,24.3105469 101.94043,24.3105469 L101.94043,24.3105469 Z M128.257812,27.3984375 C131.655599,27.3984375 134.345052,26.2888997 136.326172,24.0698242 C138.307292,21.8507487 139.297852,18.8375651 139.297852,15.0302734 C139.297852,11.2229818 138.307292,8.20703125 136.326172,5.98242188 C134.345052,3.7578125 131.655599,2.64550781 128.257812,2.64550781 C124.860026,2.64550781 122.170573,3.7578125 120.189453,5.98242188 C118.208333,8.20703125 117.217773,11.2229818 117.217773,15.0302734 C117.217773,18.8375651 118.208333,21.8507487 120.189453,24.0698242 C122.170573,26.2888997 124.860026,27.3984375 128.257812,27.3984375 Z M128.257812,24.6425781 C125.811849,24.6425781 123.872233,23.7765299 122.438965,22.0444336 C121.005697,20.3123372 120.289062,17.9742839 120.289062,15.0302734 C120.289062,12.0751953 121.005697,9.73160807 122.438965,7.99951172 C123.872233,6.26741536 125.811849,5.40136719 128.257812,5.40136719 C130.703776,5.40136719 132.640625,6.27018229 134.068359,8.0078125 C135.507161,9.734375 136.226562,12.0751953 136.226562,15.0302734 C136.226562,17.9742839 135.509928,20.3123372 134.07666,22.0444336 C132.643392,23.7765299 130.703776,24.6425781 128.257812,24.6425781 Z M167.694336,27 L167.694336,24.3105469 L156.139648,24.3105469 L156.139648,3.04394531 L153.151367,3.04394531 L153.151367,27 L167.694336,27 Z M174.969727,27 L174.969727,3.04394531 L171.981445,3.04394531 L171.981445,27 L174.969727,27 Z M188.354492,27.3984375 C191.110352,27.3984375 193.293457,26.7592773 194.903809,25.480957 C196.51416,24.2026367 197.319336,22.4677734 197.319336,20.2763672 C197.319336,18.5608724 196.777018,17.1884766 195.692383,16.1591797 C194.607747,15.1298828 192.825846,14.3053385 190.34668,13.6855469 L190.34668,13.6855469 L187.839844,13.0214844 C186.212891,12.6009115 185.04248,12.1000977 184.328613,11.519043 C183.614746,10.9379883 183.257812,10.1936849 183.257812,9.28613281 C183.257812,8.11295573 183.747559,7.16113281 184.727051,6.43066406 C185.706543,5.70019531 186.971029,5.33496094 188.520508,5.33496094 C190.081055,5.33496094 191.348307,5.70572917 192.322266,6.44726562 C193.296224,7.18880208 193.849609,8.2014974 193.982422,9.48535156 L193.982422,9.48535156 L196.970703,9.48535156 C196.904297,7.48209635 196.09082,5.84130859 194.530273,4.56298828 C192.969727,3.28466797 190.999674,2.64550781 188.620117,2.64550781 C186.129883,2.64550781 184.096191,3.27636719 182.519043,4.53808594 C180.941895,5.79980469 180.15332,7.42675781 180.15332,9.41894531 C180.15332,11.0458984 180.662435,12.3657227 181.680664,13.378418 C182.698893,14.3911133 184.314779,15.1796875 186.52832,15.7441406 L186.52832,15.7441406 L189.599609,16.5410156 C191.215495,16.9615885 192.391439,17.4983724 193.127441,18.1513672 C193.863444,18.804362 194.231445,19.6344401 194.231445,20.6416016 C194.231445,21.8147786 193.702962,22.7859701 192.645996,23.5551758 C191.58903,24.3243815 190.252604,24.7089844 188.636719,24.7089844 C186.921224,24.7089844 185.50179,24.3160807 184.378418,23.5302734 C183.255046,22.7444661 182.621419,21.7041016 182.477539,20.4091797 L182.477539,20.4091797 L179.472656,20.4091797 C179.616536,22.523112 180.496419,24.2164714 182.112305,25.4892578 C183.72819,26.7620443 185.808919,27.3984375 188.354492,27.3984375 Z M211.019531,27 L211.019531,5.73339844 L218.739258,5.73339844 L218.739258,3.04394531 L200.311523,3.04394531 L200.311523,5.73339844 L208.03125,5.73339844 L208.03125,27 L211.019531,27 Z" id="TODOLIST" fill="#1E1E1E" fill-rule="nonzero"></path>
        <path d="M23,0 C24.5976809,0 25.9036609,1.24891996 25.9949073,2.82372721 L26,3 L26,29 C26,30.5976809 24.75108,31.9036609 23.1762728,31.9949073 L23,32 L16,32 L16,34.438056 C16,34.6956197 15.9234906,34.9473788 15.7801793,35.1613904 C15.4056607,35.7206715 14.6725711,35.896045 14.0908422,35.5866152 L13.9766656,35.5182353 L11.23,33.679 L7.95721045,35.5981525 C7.79774654,35.6915884 7.62066743,35.7496778 7.43792856,35.7691761 L7.3,35.7765133 C6.62690296,35.7765133 6.07328475,35.2649637 6.00671175,34.6094308 L6,34.4765133 L6,32 L3,32 C1.40231912,32 0.0963391206,30.75108 0.00509269341,29.1762728 L0,29 L0,3 C0,1.40231912 1.24891996,0.0963391206 2.82372721,0.00509269341 L3,0 L23,0 Z M14,29 L8,29 L8,33.254 L10.5988271,31.7322943 C10.9858932,31.5054977 11.4589987,31.4958637 11.8516837,31.6983932 L11.9793719,31.7737541 L14,33.127 L14,29 Z M23.1762728,25.9949073 L23,26 L3,26 C2.48716416,26 2.06449284,26.3860402 2.00672773,26.8833789 L2,27 L2,29 C2,29.5128358 2.38604019,29.9355072 2.88337887,29.9932723 L3,30 L6,30 L6,29 L5,29 C4.44771525,29 4,28.5522847 4,28 C4,27.4871642 4.38604019,27.0644928 4.88337887,27.0067277 L5,27 L23,27 C23.5128358,27 23.9355072,26.6139598 23.9932723,26.1166211 L24,26 L24.0009007,25.8289758 C23.7406443,25.9210572 23.4638938,25.9782422 23.1762728,25.9949073 Z M23.1762728,28.9949073 L23,29 L16,29 L16,30 L23,30 C23.5128358,30 23.9355072,29.6139598 23.9932723,29.1166211 L24,29 L24.0009007,28.8289758 C23.7406443,28.9210572 23.4638938,28.9782422 23.1762728,28.9949073 Z M23,2 L6,2 L6,22 L4,22 L4,2 L3,2 C2.48716416,2 2.06449284,2.38604019 2.00672773,2.88337887 L2,3 L2.00008893,24.1706743 C2.26005727,24.0787979 2.5364707,24.0217367 2.82372721,24.0050927 L3,24 L23,24 C23.5128358,24 23.9355072,23.6139598 23.9932723,23.1166211 L24,23 L24,3 C24,2.48716416 23.6139598,2.06449284 23.1166211,2.00672773 L23,2 Z" id="Combined-Shape" fill="#1E1E1E" fill-rule="nonzero"></path>
    </g>
</svg>