<?xml version="1.0" encoding="UTF-8"?>
<svg width="18px" height="18px" viewBox="0 0 18 18" version="1.1" xmlns="http://www.w3.org/2000/svg" xmlns:xlink="http://www.w3.org/1999/xlink">
    <title>Artboard</title>
    <g id="Artboard" stroke="none" stroke-width="1" fill="none" fill-rule="evenodd">
        <path d="M9.5,2 C11.4329966,2 13,3.56700338 13,5.5 C13,7.43299662 11.4329966,9 9.5,9 C7.56700338,9 6,7.43299662 6,5.5 C6,3.56700338 7.56700338,2 9.5,2 Z M9.5,3 C8.11928813,3 7,4.11928813 7,5.5 C7,6.88071187 8.11928813,8 9.5,8 C10.8807119,8 12,6.88071187 12,5.5 C12,4.11928813 10.8807119,3 9.5,3 Z" id="Oval-Copy" fill="#1E1E1E" fill-rule="nonzero"></path>
        <path d="M9.5,9.5 C12.7616487,9.5 14.8959995,10.6149101 15.9030524,12.8447302 L16,13.0714286 L16,15 L3,15 L3,13.0714286 C3.96296296,10.6904762 6.12962963,9.5 9.5,9.5 Z M9.5,10.5 C6.71331963,10.5 4.97399215,11.3500784 4.10572952,13.0537277 L4,13.274 L4,14 L15,14 L15,13.277 L14.9871684,13.2465349 C14.1831873,11.4796533 12.5146705,10.566472 9.80533001,10.5034984 L9.5,10.5 Z" id="Path-33-Copy" fill="#1E1E1E" fill-rule="nonzero"></path>
    </g>
</svg>