<?xml version="1.0" encoding="UTF-8"?>
<svg width="13px" height="13px" viewBox="0 0 13 13" version="1.1" xmlns="http://www.w3.org/2000/svg" xmlns:xlink="http://www.w3.org/1999/xlink">
    <title>Artboard</title>
    <g id="Artboard" stroke="none" stroke-width="1" fill="none" fill-rule="evenodd">
        <path d="M7.5,0 C10.5375661,0 13,2.46243388 13,5.5 C13,8.53756612 10.5375661,11 7.5,11 C6.25167904,11 5.10049152,10.5841223 4.17742887,9.88335837 L1,13.0606602 L-0.0606601718,12 L3.11664163,8.82257113 C2.41587769,7.89950848 2,6.74832096 2,5.5 C2,2.46243388 4.46243388,0 7.5,0 Z M7.5,1.5 C5.290861,1.5 3.5,3.290861 3.5,5.5 C3.5,7.709139 5.290861,9.5 7.5,9.5 C9.709139,9.5 11.5,7.709139 11.5,5.5 C11.5,3.290861 9.709139,1.5 7.5,1.5 Z" id="Combined-Shape" fill="#8F9196" fill-rule="nonzero"></path>
    </g>
</svg>